HIERARCHY
ROOT Hip
{
    OFFSET 0.0 0.0 0.0
    CHANNELS 6 Xposition Yposition Zposition Zrotation Xrotation Yrotation
    JOINT RightHip
    {
        OFFSET -5.8272247314453125 0.0 0.0
        CHANNELS 3 Zrotation Xrotation Yrotation
        JOINT RightKnee
        {
            OFFSET 0.0 0.0 -42.04928207397461
            CHANNELS 3 Zrotation Xrotation Yrotation
            JOINT RightAnkle
            {
                OFFSET 0.0 0.0 -42.92363739013672
                CHANNELS 3 Zrotation Xrotation Yrotation
                End Site
                {
                    OFFSET 0.0 -17.169456481933594 0.0
                }
            }
        }
    }
    JOINT LeftHip
    {
        OFFSET 5.8272247314453125 0.0 0.0
        CHANNELS 3 Zrotation Xrotation Yrotation
        JOINT LeftKnee
        {
            OFFSET 0.0 0.0 -42.04928207397461
            CHANNELS 3 Zrotation Xrotation Yrotation
            JOINT LeftAnkle
            {
                OFFSET 0.0 0.0 -42.92363739013672
                CHANNELS 3 Zrotation Xrotation Yrotation
                End Site
                {
                    OFFSET 0.0 -17.169456481933594 0.0
                }
            }
        }
    }
    JOINT Spine
    {
        OFFSET 0.0 0.0 23.47943878173828
        CHANNELS 3 Zrotation Xrotation Yrotation
        JOINT Thorax
        {
            OFFSET 0.0 0.0 23.691129684448242
            CHANNELS 3 Zrotation Xrotation Yrotation
            JOINT Neck
            {
                OFFSET 0.0 0.0 9.064299583435059
                CHANNELS 3 Zrotation Xrotation Yrotation
                End Site
                {
                    OFFSET 0.0 0.0 3.6257197856903076
                }
            }
            JOINT LeftShoulder
            {
                OFFSET 10.000517845153809 0.0 0.0
                CHANNELS 3 Zrotation Xrotation Yrotation
                JOINT LeftElbow
                {
                    OFFSET 25.759489059448242 0.0 0.0
                    CHANNELS 3 Zrotation Xrotation Yrotation
                    JOINT LeftWrist
                    {
                        OFFSET 17.29940414428711 0.0 0.0
                        CHANNELS 3 Zrotation Xrotation Yrotation
                        End Site
                        {
                            OFFSET 6.919761657714844 0.0 0.0
                        }
                    }
                }
            }
            JOINT RightShoulder
            {
                OFFSET -10.000517845153809 0.0 0.0
                CHANNELS 3 Zrotation Xrotation Yrotation
                JOINT RightElbow
                {
                    OFFSET -25.759489059448242 0.0 0.0
                    CHANNELS 3 Zrotation Xrotation Yrotation
                    JOINT RightWrist
                    {
                        OFFSET -17.29940414428711 0.0 0.0
                        CHANNELS 3 Zrotation Xrotation Yrotation
                        End Site
                        {
                            OFFSET -6.919761657714844 0.0 0.0
                        }
                    }
                }
            }
        }
    }
}
MOTION
Frames: 12
Frame Time: 0.03333333333333333
0.0005435573402792215 93.8320541381836 -0.0006091004470363259 -94.36747091811182 -53.49326627869321 -100.05754614570407 -0.2834959780186017 -7.159391395365805 1.0700579076994245 -0.4480897147007152 -7.53585214597757 -6.5681779857872575 -4.770832022195275e-15 -6.3611093629270335e-15 -3.1805546814635168e-15 -0.3361081562549139 -8.707955494152744 6.543408322955116 -1.0542450159079635 -6.832718403895916 -6.92194997771198 0.0 -7.951386703658792e-16 0.0 0.3422036632850468 8.72718704603116 3.3846251328229515 6.094596207132647 1.1010748237999116e-06 -5.702322097158368e-07 17.221361658077015 -0.11050993969295395 4.419287277429707 0.48748673404317006 17.805630890202522 81.52279964531853 -7.081459704268928 -8.685655128833722e-06 1.5051375339759208e-06 -3.531125038440127e-31 6.3611093629270335e-15 6.3611093629270335e-15 50.22591234036361 15.906837497317136 -90.29301490601746 27.756211839326152 -6.087395722932861e-06 4.2211284670291073e-07 -3.531125038440127e-31 6.3611093629270335e-15 6.3611093629270335e-15
0.0006840809946879745 93.83233642578125 -0.0007076345500536263 -92.72346041938273 -49.95430596986048 -98.76976872502502 -1.2821207490031974 -8.84601341218625 0.7543551316111705 -1.028219347884256 -6.35991914816282 -7.466640035505845 3.1805546814635164e-15 0.0 0.0 -1.4528632644646318 -10.059882551388993 3.794422598659646 -1.3632743937117333 -6.409423597634001 -5.1398941372039815 -3.1805546814635168e-15 6.3611093629270335e-15 3.1805546814635168e-15 1.2800072753963025 8.850197496736037 2.7967294192367538 9.707675259940974 8.693182134106189e-07 6.982731056132509e-07 11.570470879452802 -1.363084148740337 4.763238435502206 29.44200257506121 11.803040259836713 74.90100525660705 -2.981241042496707 -2.1076779103527596e-05 1.4172463826740007e-06 0.0 0.0 0.0 55.89719143078778 14.321221197296794 -93.14878139458996 17.117396781180478 -7.562776138994949e-06 8.969015201115371e-07 0.0 0.0 0.0
0.0008418603101745248 93.83221435546875 -0.0006036291015334427 -91.9528194777081 -46.67343041492659 -100.18947219287965 -0.1346720436399874 -8.561661028859858 1.0220771987763029 -0.18749874088613658 -5.31880271101082 -4.506730134314398 -3.1805546814635176e-15 0.0 0.0 -0.1712292328024041 -11.133204985437697 7.316460500789916 -0.36646332235388623 -2.5615036884336164 -6.826141961794199 -3.180554681463516e-15 8.827812596100317e-32 -3.180554681463516e-15 0.13067478876016358 8.330548842055705 3.0915955821513665 10.845818155270521 1.647623497724222e-06 1.9941915729333768e-07 18.13923197619617 2.7424014474153915 9.50110912766196 -34.249173800297 16.778985497438942 93.99303653135762 -7.9620220616432 -1.9689766599916078e-06 2.1003062853335058e-07 -6.3611093629270335e-15 1.590277340731758e-15 4.770832022195275e-15 42.66550922315313 16.80715501322209 -85.7716537189961 26.386084608104202 -1.275095372319623e-06 2.7173034651528378e-06 3.531125038440127e-31 -6.3611093629270335e-15 6.3611093629270335e-15
0.0008492694469168782 93.83209991455078 -0.0005597803392447531 -95.11409016590513 -55.968557299869026 -105.7335058364602 0.4647503504260185 -6.033482851196418 5.262839224990002 -0.12870170411069407 -8.164063119303927 -1.0071825624000974 3.1805546814635164e-15 -8.827812596100317e-32 -3.1805546814635164e-15 0.7364491625366267 -9.417419495378024 14.619960177395892 -0.5872843863316457 -3.2939773153094105 -9.887450102902829 3.1805546814635168e-15 6.3611093629270335e-15 -1.7655625192200634e-31 -0.7508685942996158 9.662676711497038 3.6161772722859657 5.7799985411451935 2.236278064337112e-06 1.8549956506416939e-06 12.076362259991662 4.855546108907504 9.447813315318697 -47.921661463866904 19.348572012054028 95.25063357792145 -16.108426535167418 -1.6292572784202258e-06 3.183955258485082e-07 0.0 0.0 7.951386703658792e-16 45.27131142719748 17.207316162578888 -82.14650693374543 33.034063904385164 -8.012187693419734e-07 -2.686362066540904e-06 6.3611093629270335e-15 3.1805546814635164e-15 -6.3611093629270335e-15
0.000883098051417619 93.83214569091797 -0.0005326195387169719 -102.91522796644144 -67.97193857111121 -112.00705632865441 0.3146079805845444 -4.834788234021883 6.760026953488042 -0.4467607847007225 -8.360235498028286 -2.3255652960321664 -1.5902773407317584e-15 -6.3611093629270335e-15 -8.827812596100317e-32 0.5263924702516712 -7.828367929542368 13.092396839980251 -0.6237468700300413 -3.832413221895823 -4.3111550235295075 -8.827812596100317e-32 -6.3611093629270335e-15 -1.5902773407317584e-15 -0.7134007460185305 10.706403750816527 0.5094982400365049 1.795906667901931 1.2664344011978519e-06 -1.0182624786077316e-06 6.759432636346483 4.931047276406754 8.238451142832545 -59.039821533261474 17.477467302088225 95.62717935444492 -15.77016636921731 1.830658967196927e-06 -9.968287404297273e-07 0.0 0.0 3.1805546814635164e-15 55.82325494111448 18.252457586723093 -86.37048236599676 33.369854638002685 -1.9998365757799582e-06 -4.472872862539105e-06 -8.827812596100317e-32 -3.180554681463516e-15 -3.180554681463516e-15
0.0007292763912118971 93.8320083618164 -0.0005331729189492762 -103.2832333714674 -63.1346438261565 -110.66555624309986 0.26566827112811103 -6.836989369741478 4.510918926084674 -0.14455874961312914 -3.633435309266898 -5.434041077141606 -1.590277340731758e-15 -2.2069531490250793e-32 1.590277340731758e-15 0.34599172220739105 -8.582154571044862 10.634211669793132 -0.009581789107806628 -0.06553711699980187 -2.806196169302302 -1.6552148617688094e-31 5.9635400277440935e-15 3.1805546814635168e-15 -0.6207411580451381 15.392575081180972 0.7754703889037043 -0.35369772277858896 -3.0781469289833174e-06 -6.793561844010839e-07 6.363496422808328 3.632538515184446 6.433804916237944 -9.984855501962308 16.26343332164621 83.72752864653515 -18.136512120187845 8.201155790686097e-07 -4.0737571166878125e-06 6.3611093629270335e-15 -3.1805546814635168e-15 -6.3611093629270335e-15 48.52659022216624 19.44840415881167 -80.50551581917567 44.48670319130609 -4.770129820598486e-07 -2.7172259658531617e-06 1.7655625192200634e-31 3.1805546814635168e-15 -6.3611093629270335e-15
0.0007049121195450425 93.83219146728516 -0.00046266341814771295 -105.20339517043423 -63.64698754841676 -111.53354229761175 0.4256030453290277 -8.249274724008629 3.8893104742134588 -0.021490246420065466 -1.3538400109709936 -5.513973291171851 0.0 0.0 -1.5902773407317588e-15 0.541729435283973 -10.129344624972372 9.315262702297275 0.054633410426848765 0.4987377890264691 -3.027931229781444 0.0 -6.3611093629270335e-15 0.0 -0.8620562808671604 16.105854642973824 0.9308935781139798 0.20812339561912918 3.628145499042084e-06 -1.7001993908622054e-06 6.743901526492487 4.101056309094906 4.210920716666284 -20.748421637573934 15.648087458684126 88.2537894006499 -16.70289232414493 -5.578520078377663e-06 4.718721462745095e-07 0.0 0.0 -3.1805546814635176e-15 46.45133767939492 15.571022600994034 -85.72337377702867 36.896321114533855 -4.067512616465957e-06 -1.5768257517319794e-06 -6.361109362927032e-15 -6.361109362927032e-15 -3.531125038440127e-31
0.0009850786300376058 93.83219146728516 -0.0005032807239331305 -104.57717777827763 -67.54568624684373 -112.06597501425807 1.190302375235226 -10.70902369996896 4.62971946805897 -0.056995328543573184 1.8573133752506572 -3.3678668519430004 -3.1805546814635176e-15 1.272221872585407e-14 1.5902773407317592e-15 1.4695459158274473 -12.980621992743904 10.522726203789661 0.11110018327241589 1.5833251559373482 -1.3976611505752428 -8.827812596100317e-32 -6.3611093629270335e-15 -1.5902773407317584e-15 -1.7268783407364685 15.246715339490702 1.993298126945289 1.1785206769482663 4.599062053930226e-06 5.005000712252979e-07 -2.6318420666990483 1.4105338059085255 3.1942381701212694 -18.655311101431902 16.713757576789064 83.73447130626971 -14.467688696233397 8.97829402181869e-06 -5.03231287249569e-07 0.0 0.0 6.3611093629270335e-15 59.67253978762925 13.392436349643594 -83.47224541993943 47.647726178597125 3.392304127491744e-06 -4.577385174858709e-06 0.0 -3.1805546814635164e-15 0.0
0.0009072431712411344 93.832275390625 -0.0005767855327576399 -97.77735939534799 -59.1007230778199 -105.51545337678738 1.7890546848107172 -12.546286403801892 3.0708460614873707 -0.26448012998342807 2.958580799133068 -3.4045063291517197 1.5902773407317584e-15 -2.2069531490250793e-32 -1.5902773407317584e-15 2.2724424697795977 -15.646696907643754 8.732979291691283 0.026513744332219015 4.250847187043714 -3.8935613610512374 0.0 0.0 0.0 -2.068221695358423 14.36514764822042 3.637678872152191 6.170167117539859 -1.7378069204897335e-06 -1.919315503117143e-06 -6.328323811827378 1.3343785578950895 3.4251326702336944 -16.01631700928064 16.53694251563808 85.7178311034113 -15.923600962166056 3.3902332725840798e-06 -1.8036363467404274e-06 8.827812596100317e-32 -3.1805546814635168e-15 3.1805546814635168e-15 57.491311190762715 14.087107067839547 -83.65550488370106 51.166965398426285 1.176329392692763e-06 -1.9713876331748988e-07 0.0 0.0 0.0
0.0012046737829223275 93.8322525024414 -0.0005114094237796962 -103.57592514572013 -67.21678636591673 -110.50140016049986 1.3498812482904556 -13.134642719284907 3.494252876533072 -0.21300343012424178 5.012824833923708 -2.6120199234002315 -1.5902773407317584e-15 6.3611093629270335e-15 8.827812596100317e-32 1.7309000528774445 -16.447142477659824 9.184680358525707 0.4181889228900588 7.692235341053592 -2.7999142682393727 -1.5902773407317588e-15 0.0 0.0 -1.303238076220671 12.613346991484296 2.6521231559204135 2.5632037209687244 -2.7089357593914925e-08 1.100904134069075e-06 -10.06366065521134 2.648867709260993 2.861802375444826 -10.999012446849722 19.855044131499145 84.62999803968462 -17.865313917987113 2.2819365775455202e-07 2.843700478767368e-07 6.361109362927033e-15 -3.1805546814635164e-15 1.7655625192200634e-31 52.603280788065945 14.110821505587316 -87.0065194516509 50.48213553001626 1.9109518524267355e-06 -1.9697384524373177e-06 -1.7655625192200634e-31 -3.1805546814635168e-15 -6.3611093629270335e-15
0.001194188604131341 93.83222961425781 -0.0005081492708995938 -108.47043433531246 -71.84262568677559 -115.9644915607917 1.740918374454555 -11.961254138700028 4.774320091178174 -0.230293413954339 3.6832824500143015 -2.6668618437982676 -1.5902773407317584e-15 6.5598940305185035e-15 7.951386703658794e-16 2.3376521332114795 -15.723496007943279 10.522177788643683 0.16177957417419128 4.7200160329691006 -1.2117384212259292 -3.1805546814635168e-15 -4.4139062980501586e-32 1.5902773407317584e-15 -1.9990001891031588 13.603082269252429 2.858597484547187 2.286261265471824 1.5634540471219003e-06 1.2968744998938721e-06 -16.675487540595043 4.698126840124496 1.7809999467422017 -6.016662628282514 15.797795001104081 81.27426069434149 -12.706507749120595 2.4002386323369856e-06 8.211421322230151e-07 0.0 0.0 0.0 53.34229261880196 13.931643079732012 -88.82616207832422 40.7094871899503 -7.144616549429377e-08 -3.1674547503592587e-07 0.0 3.1805546814635168e-15 0.0
0.0011092437198385596 93.8321762084961 -0.0004214787622913718 -106.41193643314723 -68.07005326156425 -113.03381495602717 0.5865995453655898 -9.857157178179383 2.6718047634521365 -0.011248373391168463 0.8463560333619973 -3.0309605177227446 -7.951386703658792e-16 6.1623246953355635e-15 1.5902773407317584e-15 0.8407721818156713 -13.655520025206844 10.079430615351082 0.6312783987274687 5.497831569059811 -3.3622153587864183 -1.5902773407317584e-15 3.975693351829396e-16 -1.5902773407317584e-15 -0.9092874577417497 14.889480811926152 0.8499430070467379 1.6199001689840622 3.6279917462011815e-06 -8.356935808967036e-08 -11.690965716626707 4.737808560175732 3.0211199229634484 -21.74203694242265 18.562113889516425 86.50816162595234 -18.129026130754994 2.0920888168037876e-06 1.3262908322168552e-06 6.3611093629270335e-15 0.0 0.0 52.56590984554949 18.0763744782973 -84.27753910580533 50.760185257235996 -8.487175924444309e-07 5.519304033212216e-06 -6.3611093629270335e-15 0.0 0.0
